<svg aria-hidden="true" style="position: absolute; width: 0; height: 0; overflow: hidden;" version="1.1" xmlns="http://www.w3.org/2000/svg" xmlns:xlink="http://www.w3.org/1999/xlink">
<defs>

<symbol id="icon-Rectangle-4567" viewBox="0 0 32 32">
<path fill="#f6b83d" style="fill: var(--color2, #f6b83d)" d="M0 8.076h32v15.848h-32v-15.848z"></path>
</symbol>

<symbol id="icon-Rectangle-4566" viewBox="0 0 32 32">
<path fill="#f6b83d" style="fill: var(--color2, #f6b83d)" d="M0 9.697h32v12.606h-32v-12.606z"></path>
</symbol>

<symbol id="icon-logo-1" viewBox="0 0 109 32">
<path fill="#262626" style="fill: var(--color1, #262626)" d="M9.414 25.571c-1.505 0-2.767-0.357-3.786-1.071s-1.786-1.686-2.3-2.914c-0.514-1.238-0.771-2.624-0.771-4.157 0-1.552 0.257-2.943 0.771-4.171s1.267-2.195 2.257-2.9c1-0.714 2.233-1.071 3.7-1.071 1.457 0 2.719 0.357 3.786 1.071 1.076 0.705 1.91 1.671 2.5 2.9 0.59 1.219 0.886 2.61 0.886 4.171 0 1.543-0.29 2.929-0.871 4.157s-1.4 2.2-2.457 2.914c-1.057 0.714-2.295 1.071-3.714 1.071zM1.971 32v-22.286h3.043v10.829h0.429v11.457h-3.471zM8.886 22.486c0.895 0 1.633-0.224 2.214-0.671s1.010-1.052 1.286-1.814c0.286-0.771 0.429-1.629 0.429-2.571 0-0.933-0.143-1.781-0.429-2.543-0.286-0.771-0.729-1.381-1.329-1.829-0.6-0.457-1.362-0.686-2.286-0.686-0.876 0-1.59 0.214-2.143 0.643-0.552 0.419-0.962 1.010-1.229 1.771-0.257 0.752-0.386 1.633-0.386 2.643 0 1 0.129 1.881 0.386 2.643 0.267 0.762 0.681 1.357 1.243 1.786 0.571 0.419 1.319 0.629 2.243 0.629zM25.477 25.571c-1.562 0-2.933-0.338-4.114-1.014s-2.105-1.614-2.771-2.814c-0.657-1.2-0.986-2.581-0.986-4.143 0-1.686 0.324-3.148 0.971-4.386 0.648-1.248 1.548-2.214 2.7-2.9s2.486-1.029 4-1.029c1.6 0 2.957 0.376 4.071 1.129 1.124 0.743 1.957 1.795 2.5 3.157s0.748 2.967 0.614 4.814h-3.414v-1.257c-0.009-1.676-0.305-2.9-0.886-3.671s-1.495-1.157-2.743-1.157c-1.41 0-2.457 0.438-3.143 1.314-0.686 0.867-1.029 2.138-1.029 3.814 0 1.562 0.343 2.771 1.029 3.629s1.686 1.286 3 1.286c0.848 0 1.576-0.186 2.186-0.557 0.619-0.381 1.095-0.929 1.429-1.643l3.4 1.029c-0.59 1.39-1.505 2.471-2.743 3.243-1.229 0.771-2.586 1.157-4.071 1.157zM20.163 18.386v-2.6h10.614v2.6h-10.614zM43.551 25.143c-1.019 0.19-2.019 0.271-3 0.243-0.971-0.019-1.843-0.195-2.614-0.529-0.771-0.343-1.357-0.881-1.757-1.614-0.352-0.667-0.538-1.348-0.557-2.043s-0.029-1.481-0.029-2.357v-13.414h3.429v13.214c0 0.619 0.005 1.162 0.014 1.629 0.019 0.467 0.119 0.848 0.3 1.143 0.343 0.571 0.89 0.89 1.643 0.957s1.609 0.029 2.571-0.114v2.886zM32.794 12.414v-2.7h10.757v2.7h-10.757zM46.011 25.143v-21h3.443v21h-3.443z"></path>
<path fill="#f6b83d" style="fill: var(--color2, #f6b83d)" d="M64.565 9.369c-2.011-2.374-5.363-3.013-7.883-0.839s-2.874 5.809-0.896 8.38c1.267 1.647 4.512 4.701 6.682 6.684 0.721 0.659 1.082 0.988 1.514 1.121 0.371 0.114 0.795 0.114 1.166 0 0.432-0.132 0.793-0.462 1.513-1.121 2.17-1.983 5.415-5.037 6.682-6.684 1.979-2.571 1.667-6.229-0.895-8.38s-5.873-1.535-7.883 0.839z"></path>
<path fill="#262626" style="fill: var(--color1, #262626)" d="M83.314 25.143l-5.6-15.429h3.443l3.886 11.186 3.871-11.186h3.457l-5.6 15.429h-3.457zM100.249 25.571c-1.562 0-2.933-0.338-4.114-1.014s-2.105-1.614-2.771-2.814c-0.657-1.2-0.986-2.581-0.986-4.143 0-1.686 0.324-3.148 0.971-4.386 0.647-1.248 1.547-2.214 2.7-2.9s2.486-1.029 4-1.029c1.6 0 2.957 0.376 4.071 1.129 1.124 0.743 1.957 1.795 2.5 3.157s0.747 2.967 0.614 4.814h-3.414v-1.257c-0.010-1.676-0.305-2.9-0.886-3.671s-1.495-1.157-2.743-1.157c-1.41 0-2.457 0.438-3.143 1.314-0.686 0.867-1.029 2.138-1.029 3.814 0 1.562 0.343 2.771 1.029 3.629s1.686 1.286 3 1.286c0.847 0 1.576-0.186 2.186-0.557 0.619-0.381 1.095-0.929 1.429-1.643l3.4 1.029c-0.59 1.39-1.505 2.471-2.743 3.243-1.229 0.771-2.586 1.157-4.071 1.157zM94.934 18.386v-2.6h10.614v2.6h-10.614z"></path>
</symbol>

<symbol id="icon-logo-2" viewBox="0 0 109 32">
<path fill="#fff" style="fill: var(--color1, #fff)" d="M9.414 25.571c-1.505 0-2.767-0.357-3.786-1.071s-1.786-1.686-2.3-2.914c-0.514-1.238-0.771-2.624-0.771-4.157 0-1.552 0.257-2.943 0.771-4.171s1.267-2.195 2.257-2.9c1-0.714 2.233-1.071 3.7-1.071 1.457 0 2.719 0.357 3.786 1.071 1.076 0.705 1.91 1.671 2.5 2.9 0.59 1.219 0.886 2.61 0.886 4.171 0 1.543-0.29 2.929-0.871 4.157s-1.4 2.2-2.457 2.914c-1.057 0.714-2.295 1.071-3.714 1.071zM1.971 32v-22.286h3.043v10.829h0.429v11.457h-3.471zM8.886 22.486c0.895 0 1.633-0.224 2.214-0.671s1.010-1.052 1.286-1.814c0.286-0.771 0.429-1.629 0.429-2.571 0-0.933-0.143-1.781-0.429-2.543-0.286-0.771-0.729-1.381-1.329-1.829-0.6-0.457-1.362-0.686-2.286-0.686-0.876 0-1.59 0.214-2.143 0.643-0.552 0.419-0.962 1.010-1.229 1.771-0.257 0.752-0.386 1.633-0.386 2.643 0 1 0.129 1.881 0.386 2.643 0.267 0.762 0.681 1.357 1.243 1.786 0.571 0.419 1.319 0.629 2.243 0.629zM25.477 25.571c-1.562 0-2.933-0.338-4.114-1.014s-2.105-1.614-2.771-2.814c-0.657-1.2-0.986-2.581-0.986-4.143 0-1.686 0.324-3.148 0.971-4.386 0.648-1.248 1.548-2.214 2.7-2.9s2.486-1.029 4-1.029c1.6 0 2.957 0.376 4.071 1.129 1.124 0.743 1.957 1.795 2.5 3.157s0.748 2.967 0.614 4.814h-3.414v-1.257c-0.009-1.676-0.305-2.9-0.886-3.671s-1.495-1.157-2.743-1.157c-1.41 0-2.457 0.438-3.143 1.314-0.686 0.867-1.029 2.138-1.029 3.814 0 1.562 0.343 2.771 1.029 3.629s1.686 1.286 3 1.286c0.848 0 1.576-0.186 2.186-0.557 0.619-0.381 1.095-0.929 1.429-1.643l3.4 1.029c-0.59 1.39-1.505 2.471-2.743 3.243-1.229 0.771-2.586 1.157-4.071 1.157zM20.163 18.386v-2.6h10.614v2.6h-10.614zM43.551 25.143c-1.019 0.19-2.019 0.271-3 0.243-0.971-0.019-1.843-0.195-2.614-0.529-0.771-0.343-1.357-0.881-1.757-1.614-0.352-0.667-0.538-1.348-0.557-2.043s-0.029-1.481-0.029-2.357v-13.414h3.429v13.214c0 0.619 0.005 1.162 0.014 1.629 0.019 0.467 0.119 0.848 0.3 1.143 0.343 0.571 0.89 0.89 1.643 0.957s1.609 0.029 2.571-0.114v2.886zM32.794 12.414v-2.7h10.757v2.7h-10.757zM46.011 25.143v-21h3.443v21h-3.443z"></path>
<path fill="#fff" style="fill: var(--color2, #fff)" d="M64.565 9.369c-2.011-2.374-5.363-3.013-7.883-0.839s-2.874 5.809-0.896 8.38c1.267 1.647 4.512 4.701 6.682 6.684 0.721 0.659 1.082 0.988 1.514 1.121 0.371 0.114 0.795 0.114 1.166 0 0.432-0.132 0.793-0.462 1.513-1.121 2.17-1.983 5.415-5.037 6.682-6.684 1.979-2.571 1.667-6.229-0.895-8.38s-5.873-1.535-7.883 0.839z"></path>
<path fill="#fff" style="fill: var(--color1, #fff)" d="M83.314 25.143l-5.6-15.429h3.443l3.886 11.186 3.871-11.186h3.457l-5.6 15.429h-3.457zM100.249 25.571c-1.562 0-2.933-0.338-4.114-1.014s-2.105-1.614-2.771-2.814c-0.657-1.2-0.986-2.581-0.986-4.143 0-1.686 0.324-3.148 0.971-4.386 0.647-1.248 1.547-2.214 2.7-2.9s2.486-1.029 4-1.029c1.6 0 2.957 0.376 4.071 1.129 1.124 0.743 1.957 1.795 2.5 3.157s0.747 2.967 0.614 4.814h-3.414v-1.257c-0.010-1.676-0.305-2.9-0.886-3.671s-1.495-1.157-2.743-1.157c-1.41 0-2.457 0.438-3.143 1.314-0.686 0.867-1.029 2.138-1.029 3.814 0 1.562 0.343 2.771 1.029 3.629s1.686 1.286 3 1.286c0.847 0 1.576-0.186 2.186-0.557 0.619-0.381 1.095-0.929 1.429-1.643l3.4 1.029c-0.59 1.39-1.505 2.471-2.743 3.243-1.229 0.771-2.586 1.157-4.071 1.157zM94.934 18.386v-2.6h10.614v2.6h-10.614z"></path>
</symbol>

<symbol id="icon-logo" viewBox="0 0 109 32">
<path fill="#fff" style="fill: var(--color1, #fff)" d="M9.414 25.571c-1.505 0-2.767-0.357-3.786-1.071s-1.786-1.686-2.3-2.914c-0.514-1.238-0.771-2.624-0.771-4.157 0-1.552 0.257-2.943 0.771-4.171s1.267-2.195 2.257-2.9c1-0.714 2.233-1.071 3.7-1.071 1.457 0 2.719 0.357 3.786 1.071 1.076 0.705 1.91 1.671 2.5 2.9 0.59 1.219 0.886 2.61 0.886 4.171 0 1.543-0.29 2.929-0.871 4.157s-1.4 2.2-2.457 2.914c-1.057 0.714-2.295 1.071-3.714 1.071zM1.971 32v-22.286h3.043v10.829h0.429v11.457h-3.471zM8.886 22.486c0.895 0 1.633-0.224 2.214-0.671s1.010-1.052 1.286-1.814c0.286-0.771 0.429-1.629 0.429-2.571 0-0.933-0.143-1.781-0.429-2.543-0.286-0.771-0.729-1.381-1.329-1.829-0.6-0.457-1.362-0.686-2.286-0.686-0.876 0-1.59 0.214-2.143 0.643-0.552 0.419-0.962 1.010-1.229 1.771-0.257 0.752-0.386 1.633-0.386 2.643 0 1 0.129 1.881 0.386 2.643 0.267 0.762 0.681 1.357 1.243 1.786 0.571 0.419 1.319 0.629 2.243 0.629zM25.477 25.571c-1.562 0-2.933-0.338-4.114-1.014s-2.105-1.614-2.771-2.814c-0.657-1.2-0.986-2.581-0.986-4.143 0-1.686 0.324-3.148 0.971-4.386 0.648-1.248 1.548-2.214 2.7-2.9s2.486-1.029 4-1.029c1.6 0 2.957 0.376 4.071 1.129 1.124 0.743 1.957 1.795 2.5 3.157s0.748 2.967 0.614 4.814h-3.414v-1.257c-0.009-1.676-0.305-2.9-0.886-3.671s-1.495-1.157-2.743-1.157c-1.41 0-2.457 0.438-3.143 1.314-0.686 0.867-1.029 2.138-1.029 3.814 0 1.562 0.343 2.771 1.029 3.629s1.686 1.286 3 1.286c0.848 0 1.576-0.186 2.186-0.557 0.619-0.381 1.095-0.929 1.429-1.643l3.4 1.029c-0.59 1.39-1.505 2.471-2.743 3.243-1.229 0.771-2.586 1.157-4.071 1.157zM20.163 18.386v-2.6h10.614v2.6h-10.614zM43.551 25.143c-1.019 0.19-2.019 0.271-3 0.243-0.971-0.019-1.843-0.195-2.614-0.529-0.771-0.343-1.357-0.881-1.757-1.614-0.352-0.667-0.538-1.348-0.557-2.043s-0.029-1.481-0.029-2.357v-13.414h3.429v13.214c0 0.619 0.005 1.162 0.014 1.629 0.019 0.467 0.119 0.848 0.3 1.143 0.343 0.571 0.89 0.89 1.643 0.957s1.609 0.029 2.571-0.114v2.886zM32.794 12.414v-2.7h10.757v2.7h-10.757zM46.011 25.143v-21h3.443v21h-3.443z"></path>
<path fill="#f6b83d" style="fill: var(--color2, #f6b83d)" d="M64.565 9.369c-2.011-2.374-5.363-3.013-7.883-0.839s-2.874 5.809-0.896 8.38c1.267 1.647 4.512 4.701 6.682 6.684 0.721 0.659 1.082 0.988 1.514 1.121 0.371 0.114 0.795 0.114 1.166 0 0.432-0.132 0.793-0.462 1.513-1.121 2.17-1.983 5.415-5.037 6.682-6.684 1.979-2.571 1.667-6.229-0.895-8.38s-5.873-1.535-7.883 0.839z"></path>
<path fill="#fff" style="fill: var(--color1, #fff)" d="M83.314 25.143l-5.6-15.429h3.443l3.886 11.186 3.871-11.186h3.457l-5.6 15.429h-3.457zM100.249 25.571c-1.562 0-2.933-0.338-4.114-1.014s-2.105-1.614-2.771-2.814c-0.657-1.2-0.986-2.581-0.986-4.143 0-1.686 0.324-3.148 0.971-4.386 0.647-1.248 1.547-2.214 2.7-2.9s2.486-1.029 4-1.029c1.6 0 2.957 0.376 4.071 1.129 1.124 0.743 1.957 1.795 2.5 3.157s0.747 2.967 0.614 4.814h-3.414v-1.257c-0.010-1.676-0.305-2.9-0.886-3.671s-1.495-1.157-2.743-1.157c-1.41 0-2.457 0.438-3.143 1.314-0.686 0.867-1.029 2.138-1.029 3.814 0 1.562 0.343 2.771 1.029 3.629s1.686 1.286 3 1.286c0.847 0 1.576-0.186 2.186-0.557 0.619-0.381 1.095-0.929 1.429-1.643l3.4 1.029c-0.59 1.39-1.505 2.471-2.743 3.243-1.229 0.771-2.586 1.157-4.071 1.157zM94.934 18.386v-2.6h10.614v2.6h-10.614z"></path>
</symbol>

<symbol id="icon-edit-2" viewBox="0 0 32 32">
<path fill="none" stroke="#f6b83d" style="stroke: var(--color2, #f6b83d)" stroke-linejoin="round" stroke-linecap="round" stroke-miterlimit="4" stroke-width="2.6667" d="M22.667 4c0.35-0.35 0.766-0.628 1.223-0.817s0.948-0.287 1.443-0.287c0.495 0 0.986 0.098 1.443 0.287s0.873 0.467 1.223 0.817c0.35 0.35 0.628 0.766 0.817 1.224s0.287 0.948 0.287 1.443c0 0.495-0.098 0.986-0.287 1.443s-0.467 0.873-0.817 1.223l-18 18-7.333 2 2-7.333 18-18z"></path>
</symbol>

<symbol id="icon-trash-2" viewBox="0 0 32 32">
<path fill="none" stroke="#f6b83d" style="stroke: var(--color2, #f6b83d)" stroke-linejoin="round" stroke-linecap="round" stroke-miterlimit="4" stroke-width="2.6667" d="M4 8h24"></path>
<path fill="none" stroke="#f6b83d" style="stroke: var(--color2, #f6b83d)" stroke-linejoin="round" stroke-linecap="round" stroke-miterlimit="4" stroke-width="2.6667" d="M25.333 8v18.667c0 0.707-0.281 1.386-0.781 1.886s-1.178 0.781-1.886 0.781h-13.333c-0.707 0-1.386-0.281-1.886-0.781s-0.781-1.178-0.781-1.886v-18.667M10.667 8v-2.667c0-0.707 0.281-1.386 0.781-1.886s1.178-0.781 1.886-0.781h5.333c0.707 0 1.386 0.281 1.886 0.781s0.781 1.178 0.781 1.886v2.667"></path>
<path fill="none" stroke="#f6b83d" style="stroke: var(--color2, #f6b83d)" stroke-linejoin="round" stroke-linecap="round" stroke-miterlimit="4" stroke-width="2.6667" d="M13.333 14.667v8"></path>
<path fill="none" stroke="#f6b83d" style="stroke: var(--color2, #f6b83d)" stroke-linejoin="round" stroke-linecap="round" stroke-miterlimit="4" stroke-width="2.6667" d="M18.667 14.667v8"></path>
</symbol>

<symbol id="icon-multiple-1" viewBox="0 0 32 32">
<path fill="#f6b83d" style="fill: var(--color2, #f6b83d)" d="M16 0c8.837 0 16 7.163 16 16s-7.163 16-16 16c-8.837 0-16-7.163-16-16s7.163-16 16-16z"></path>
<path fill="#fff" style="fill: var(--color1, #fff)" d="M13.417 12.596c-0.574-0.224-1.206-0.253-1.798-0.081s-1.111 0.534-1.476 1.031c-0.365 0.497-0.556 1.1-0.543 1.716s0.229 1.211 0.614 1.692c0.386 0.481 0.919 0.821 1.518 0.968s1.229 0.092 1.793-0.156c0.564-0.248 1.031-0.676 1.327-1.216s0.406-1.163 0.312-1.773c-0.008-0.052-0.006-0.105 0.007-0.156s0.035-0.099 0.066-0.141c0.031-0.042 0.070-0.078 0.115-0.105s0.095-0.045 0.147-0.053c0.052-0.008 0.105-0.006 0.156 0.007s0.099 0.035 0.141 0.066c0.042 0.031 0.078 0.070 0.105 0.115s0.045 0.095 0.053 0.147c0.121 0.783-0.021 1.584-0.402 2.279s-0.981 1.244-1.706 1.563c-0.725 0.319-1.536 0.389-2.305 0.201s-1.455-0.626-1.951-1.244c-0.496-0.618-0.773-1.383-0.79-2.175s0.229-1.568 0.698-2.206c0.469-0.639 1.136-1.104 1.897-1.325s1.574-0.184 2.312 0.104c0.050 0.019 0.095 0.047 0.134 0.083s0.070 0.080 0.091 0.128c0.022 0.048 0.033 0.101 0.035 0.154s-0.008 0.106-0.027 0.155c-0.019 0.049-0.048 0.094-0.085 0.132s-0.081 0.068-0.129 0.089c-0.049 0.021-0.101 0.032-0.154 0.033s-0.105-0.009-0.155-0.029z"></path>
<path fill="#fff" style="fill: var(--color1, #fff)" d="M11.998 22v-3.199c0-0.106 0.042-0.208 0.117-0.283s0.177-0.117 0.283-0.117c0.106 0 0.208 0.042 0.283 0.117s0.117 0.177 0.117 0.283v3.199c0 0.106-0.042 0.208-0.117 0.283s-0.177 0.117-0.283 0.117c-0.106 0-0.208-0.042-0.283-0.117s-0.117-0.177-0.117-0.283z"></path>
<path fill="#fff" style="fill: var(--color1, #fff)" d="M10.799 20.001c0-0.106 0.042-0.208 0.117-0.283s0.177-0.117 0.283-0.117h2.399c0.106 0 0.208 0.042 0.283 0.117s0.117 0.177 0.117 0.283c0 0.106-0.042 0.208-0.117 0.283s-0.177 0.117-0.283 0.117h-2.399c-0.106 0-0.208-0.042-0.283-0.117s-0.117-0.177-0.117-0.283zM17.957 12.509c-0.443-0.125-0.91-0.139-1.36-0.040s-0.868 0.307-1.218 0.606-0.621 0.68-0.789 1.109c-0.168 0.429-0.227 0.892-0.173 1.35 0.006 0.052 0.003 0.105-0.012 0.156s-0.038 0.098-0.071 0.14c-0.032 0.041-0.073 0.076-0.119 0.102s-0.096 0.042-0.149 0.048c-0.052 0.006-0.105 0.002-0.156-0.012s-0.098-0.039-0.139-0.071c-0.041-0.033-0.076-0.073-0.101-0.119s-0.042-0.097-0.048-0.149c-0.093-0.787 0.076-1.583 0.481-2.264s1.024-1.209 1.76-1.503c0.736-0.294 1.548-0.336 2.311-0.121s1.433 0.676 1.907 1.311c0.474 0.635 0.725 1.409 0.714 2.201s-0.283 1.559-0.774 2.181-1.174 1.064-1.942 1.259c-0.768 0.194-1.579 0.13-2.307-0.184-0.048-0.021-0.092-0.051-0.128-0.088s-0.065-0.082-0.085-0.131c-0.039-0.098-0.038-0.209 0.004-0.306s0.121-0.174 0.219-0.213c0.099-0.039 0.209-0.038 0.306 0.004 0.352 0.152 0.731 0.229 1.114 0.228s0.762-0.080 1.113-0.234c0.351-0.153 0.667-0.377 0.928-0.657s0.462-0.611 0.59-0.972c0.128-0.361 0.181-0.744 0.155-1.127s-0.13-0.755-0.306-1.095-0.42-0.641-0.717-0.883c-0.297-0.242-0.64-0.421-1.009-0.525z"></path>
<path fill="#fff" style="fill: var(--color1, #fff)" d="M19.513 13.286c-0.075-0.075-0.117-0.177-0.117-0.283s0.042-0.208 0.117-0.283l2.999-2.999c0.037-0.038 0.081-0.069 0.13-0.090s0.101-0.032 0.154-0.032c0.053-0 0.106 0.010 0.155 0.030s0.094 0.050 0.131 0.087c0.038 0.038 0.067 0.082 0.087 0.131s0.030 0.102 0.030 0.155c-0 0.053-0.012 0.106-0.032 0.154s-0.051 0.093-0.090 0.13l-2.999 2.999c-0.075 0.075-0.177 0.117-0.283 0.117s-0.208-0.042-0.283-0.117z"></path>
<path fill="#fff" style="fill: var(--color1, #fff)" d="M22.764 12.404c-0.053-0.001-0.104-0.012-0.153-0.032s-0.092-0.051-0.129-0.088c-0.037-0.038-0.066-0.082-0.085-0.131s-0.029-0.101-0.028-0.153l0.020-1.589-1.589 0.020c-0.106 0.001-0.208-0.039-0.284-0.113s-0.119-0.175-0.121-0.281c-0.001-0.106 0.039-0.208 0.113-0.284s0.175-0.119 0.281-0.121l2.409-0.030-0.030 2.409c-0.001 0.052-0.012 0.104-0.032 0.153s-0.051 0.092-0.088 0.129-0.082 0.066-0.131 0.085c-0.049 0.020-0.101 0.029-0.153 0.028z"></path>
</symbol>

<symbol id="icon-male-1" viewBox="0 0 32 32">
<path fill="#54adff" style="fill: var(--color4, #54adff)" d="M16 0c8.837 0 16 7.163 16 16s-7.163 16-16 16c-8.837 0-16-7.163-16-16s7.163-16 16-16z"></path>
<path fill="none" stroke="#fff" style="stroke: var(--color1, #fff)" stroke-linejoin="round" stroke-linecap="round" stroke-miterlimit="4" stroke-width="1.2" d="M16 15.2c-2.209 0-4 1.791-4 4s1.791 4 4 4c2.209 0 4-1.791 4-4s-1.791-4-4-4zM16 15.2v-6.4M16 8.8l3.2 3.2M16 8.8l-3.2 3.2"></path>
</symbol>

<symbol id="icon-female-1" viewBox="0 0 32 32">
<path fill="#f43f5e" style="fill: var(--color5, #f43f5e)" d="M16 0c8.837 0 16 7.163 16 16s-7.163 16-16 16c-8.837 0-16-7.163-16-16s7.163-16 16-16z"></path>
<path fill="none" stroke="#fff" style="stroke: var(--color1, #fff)" stroke-linejoin="round" stroke-linecap="round" stroke-miterlimit="4" stroke-width="1.2" d="M16 16.8c2.209 0 4-1.791 4-4s-1.791-4-4-4c-2.209 0-4 1.791-4 4s1.791 4 4 4zM16 16.8v6.4M13.6 20.8h4.8"></path>
</symbol>

<symbol id="icon-multiple" viewBox="0 0 32 32">
<path fill="#fff4df" style="fill: var(--color6, #fff4df)" d="M16 0c8.837 0 16 7.163 16 16s-7.163 16-16 16c-8.837 0-16-7.163-16-16s7.163-16 16-16z"></path>
<path fill="#f6b83d" style="fill: var(--color2, #f6b83d)" d="M13.417 12.596c-0.574-0.224-1.206-0.253-1.798-0.081s-1.111 0.534-1.476 1.031c-0.365 0.497-0.556 1.1-0.543 1.716s0.229 1.211 0.614 1.692c0.386 0.481 0.919 0.821 1.518 0.968s1.229 0.092 1.793-0.156c0.564-0.248 1.031-0.676 1.327-1.216s0.406-1.163 0.312-1.773c-0.008-0.052-0.006-0.105 0.007-0.156s0.035-0.099 0.066-0.141c0.031-0.042 0.070-0.078 0.115-0.105s0.095-0.045 0.147-0.053c0.052-0.008 0.105-0.006 0.156 0.007s0.099 0.035 0.141 0.066c0.042 0.031 0.078 0.070 0.105 0.115s0.045 0.095 0.053 0.147c0.121 0.783-0.021 1.584-0.402 2.279s-0.981 1.244-1.706 1.563c-0.725 0.319-1.536 0.389-2.305 0.201s-1.455-0.626-1.951-1.244c-0.496-0.618-0.773-1.383-0.79-2.175s0.229-1.568 0.698-2.206c0.469-0.639 1.136-1.104 1.897-1.325s1.574-0.184 2.312 0.104c0.050 0.019 0.095 0.047 0.134 0.083s0.070 0.080 0.091 0.128c0.022 0.048 0.033 0.101 0.035 0.154s-0.008 0.106-0.027 0.155c-0.019 0.049-0.048 0.094-0.085 0.132s-0.081 0.068-0.129 0.089c-0.049 0.021-0.101 0.032-0.154 0.033s-0.105-0.009-0.155-0.029z"></path>
<path fill="#f6b83d" style="fill: var(--color2, #f6b83d)" d="M11.998 22v-3.199c0-0.106 0.042-0.208 0.117-0.283s0.177-0.117 0.283-0.117c0.106 0 0.208 0.042 0.283 0.117s0.117 0.177 0.117 0.283v3.199c0 0.106-0.042 0.208-0.117 0.283s-0.177 0.117-0.283 0.117c-0.106 0-0.208-0.042-0.283-0.117s-0.117-0.177-0.117-0.283z"></path>
<path fill="#f6b83d" style="fill: var(--color2, #f6b83d)" d="M10.799 20.001c0-0.106 0.042-0.208 0.117-0.283s0.177-0.117 0.283-0.117h2.399c0.106 0 0.208 0.042 0.283 0.117s0.117 0.177 0.117 0.283c0 0.106-0.042 0.208-0.117 0.283s-0.177 0.117-0.283 0.117h-2.399c-0.106 0-0.208-0.042-0.283-0.117s-0.117-0.177-0.117-0.283zM17.957 12.509c-0.443-0.125-0.91-0.139-1.36-0.040s-0.868 0.307-1.218 0.606-0.621 0.68-0.789 1.109c-0.168 0.429-0.227 0.892-0.173 1.35 0.006 0.052 0.003 0.105-0.012 0.156s-0.038 0.098-0.071 0.14c-0.032 0.041-0.073 0.076-0.119 0.102s-0.096 0.042-0.149 0.049c-0.052 0.006-0.105 0.002-0.156-0.012s-0.098-0.039-0.139-0.071c-0.041-0.033-0.076-0.073-0.101-0.119s-0.042-0.097-0.048-0.149c-0.093-0.787 0.076-1.583 0.481-2.264s1.024-1.209 1.76-1.503c0.736-0.294 1.548-0.336 2.311-0.121s1.433 0.676 1.907 1.311c0.474 0.635 0.725 1.409 0.714 2.201s-0.283 1.559-0.774 2.181-1.174 1.064-1.942 1.259c-0.768 0.194-1.579 0.13-2.307-0.184-0.048-0.021-0.092-0.051-0.128-0.088s-0.065-0.082-0.085-0.131c-0.039-0.098-0.038-0.209 0.004-0.306s0.121-0.174 0.219-0.213c0.099-0.039 0.209-0.038 0.306 0.004 0.352 0.152 0.731 0.229 1.114 0.228s0.762-0.080 1.113-0.234c0.351-0.153 0.667-0.377 0.928-0.657s0.462-0.611 0.59-0.972c0.128-0.361 0.181-0.744 0.155-1.127s-0.13-0.755-0.306-1.095-0.42-0.641-0.717-0.883c-0.297-0.242-0.64-0.421-1.009-0.525z"></path>
<path fill="#f6b83d" style="fill: var(--color2, #f6b83d)" d="M19.513 13.286c-0.075-0.075-0.117-0.177-0.117-0.283s0.042-0.208 0.117-0.283l2.999-2.999c0.037-0.038 0.081-0.069 0.13-0.090s0.101-0.032 0.154-0.032c0.053-0 0.106 0.010 0.155 0.030s0.094 0.050 0.131 0.087c0.038 0.038 0.067 0.082 0.087 0.131s0.030 0.102 0.030 0.155c-0 0.053-0.012 0.106-0.032 0.154s-0.051 0.093-0.090 0.13l-2.999 2.999c-0.075 0.075-0.177 0.117-0.283 0.117s-0.208-0.042-0.283-0.117z"></path>
<path fill="#f6b83d" style="fill: var(--color2, #f6b83d)" d="M22.764 12.404c-0.053-0.001-0.104-0.012-0.153-0.032s-0.092-0.051-0.129-0.088c-0.037-0.038-0.066-0.082-0.085-0.131s-0.029-0.101-0.028-0.153l0.020-1.589-1.589 0.020c-0.106 0.001-0.208-0.039-0.284-0.113s-0.119-0.175-0.121-0.281c-0.001-0.106 0.039-0.208 0.113-0.284s0.175-0.119 0.281-0.121l2.409-0.030-0.030 2.409c-0.001 0.052-0.012 0.104-0.032 0.153s-0.051 0.092-0.088 0.129-0.082 0.066-0.131 0.085c-0.049 0.020-0.101 0.029-0.153 0.028z"></path>
</symbol>

<symbol id="icon-male" viewBox="0 0 32 32">
<path fill="#54adff" style="fill: var(--color4, #54adff)" opacity="0.1" d="M16 0c8.837 0 16 7.163 16 16s-7.163 16-16 16c-8.837 0-16-7.163-16-16s7.163-16 16-16z"></path>
<path fill="none" stroke="#54adff" style="stroke: var(--color4, #54adff)" stroke-linejoin="round" stroke-linecap="round" stroke-miterlimit="4" stroke-width="1.2" d="M16 15.2c-2.209 0-4 1.791-4 4s1.791 4 4 4c2.209 0 4-1.791 4-4s-1.791-4-4-4zM16 15.2v-6.4M16 8.8l3.2 3.2M16 8.8l-3.2 3.2"></path>
</symbol>

<symbol id="icon-female" viewBox="0 0 32 32">
<path fill="#f43f5e" style="fill: var(--color5, #f43f5e)" opacity="0.1" d="M16 0c8.837 0 16 7.163 16 16s-7.163 16-16 16c-8.837 0-16-7.163-16-16s7.163-16 16-16z"></path>
<path fill="none" stroke="#f43f5e" style="stroke: var(--color5, #f43f5e)" stroke-linejoin="round" stroke-linecap="round" stroke-miterlimit="4" stroke-width="1.2" d="M16 16.8c2.209 0 4-1.791 4-4s-1.791-4-4-4c-2.209 0-4 1.791-4 4s1.791 4 4 4zM16 16.8v6.4M13.6 20.8h4.8"></path>
</symbol>

<symbol id="icon-untitled" viewBox="0 0 32 32">
<path fill="#fff" style="fill: var(--color1, #fff)" d="M0.485 31.263h31.030v-31.030h-31.030v31.030z"></path>
</symbol>

<symbol id="icon-1" viewBox="0 0 32 32">
<path fill="#fff" style="fill: var(--color1, #fff)" d="M0.485 31.263h31.030v-31.030h-31.030v31.030z"></path>
</symbol>

<symbol id="icon-calendar" viewBox="0 0 32 32">
<path fill="#fff" stroke="#262626" stroke-linejoin="round" stroke-linecap="round" stroke-miterlimit="4" stroke-width="2.88" d="M25.333 5.333h-18.667c-1.473 0-2.667 1.194-2.667 2.667v18.667c0 1.473 1.194 2.667 2.667 2.667h18.667c1.473 0 2.667-1.194 2.667-2.667v-18.667c0-1.473-1.194-2.667-2.667-2.667z"></path>
<path fill="#fff" stroke="#262626" stroke-linejoin="round" stroke-linecap="round" stroke-miterlimit="4" stroke-width="2.88" d="M21.333 2.667v5.333"></path>
<path fill="#fff" stroke="#262626" stroke-linejoin="round" stroke-linecap="round" stroke-miterlimit="4" stroke-width="2.88" d="M10.667 2.667v5.333"></path>
<path fill="#fff" stroke="#262626" stroke-linejoin="round" stroke-linecap="round" stroke-miterlimit="4" stroke-width="2.88" d="M4 13.333h24"></path>
</symbol>

<symbol id="icon-user-02" viewBox="0 0 32 32">
<path fill="#f6b83d" style="fill: var(--color2, #f6b83d); stroke: var(--color2, #f6b83d)" stroke="#f6b83d" stroke-linejoin="round" stroke-linecap="round" stroke-miterlimit="4" stroke-width="2.6667" d="M16 20c-4.227 0-7.986 2.041-10.379 5.208-0.515 0.682-0.773 1.022-0.764 1.483 0.006 0.356 0.23 0.805 0.51 1.025 0.362 0.284 0.865 0.284 1.869 0.284h17.527c1.005 0 1.507 0 1.869-0.284 0.28-0.22 0.503-0.669 0.51-1.025 0.008-0.461-0.249-0.801-0.764-1.483-2.393-3.167-6.152-5.208-10.379-5.208z"></path>
<path fill="#f6b83d" style="fill: var(--color2, #f6b83d); stroke: var(--color2, #f6b83d)" stroke="#f6b83d" stroke-linejoin="round" stroke-linecap="round" stroke-miterlimit="4" stroke-width="2.6667" d="M16 16c3.314 0 6-2.686 6-6s-2.686-6-6-6c-3.314 0-6 2.686-6 6s2.686 6 6 6z"></path>
</symbol>

<symbol id="icon-chevron-down" viewBox="0 0 32 32">
<path stroke-linejoin="round" stroke-linecap="round" stroke-miterlimit="4" stroke-width="3.5556" d="M8 12l8 8 8-8"></path>
</symbol>

<symbol id="icon-search" viewBox="0 0 32 32">
<path stroke="#262626" fill="#fff" stroke-linejoin="round" stroke-linecap="round" stroke-miterlimit="4" stroke-width="3.5556" d="M14.667 25.333c5.891 0 10.667-4.776 10.667-10.667s-4.776-10.667-10.667-10.667c-5.891 0-10.667 4.776-10.667 10.667s4.776 10.667 10.667 10.667z"></path>
<path stroke="#262626" fill="#fff" stroke-linejoin="round" stroke-linecap="round" stroke-miterlimit="4" stroke-width="3.5556" d="M28.001 28l-5.8-5.8"></path>
</symbol>

<symbol id="icon-menu-01" viewBox="0 0 32 32">
<path fill="none" stroke="#fff" style="stroke: var(--color1, #fff)" stroke-linejoin="round" stroke-linecap="round" stroke-miterlimit="4" stroke-width="3" d="M4 16h24"></path>
<path fill="none" stroke="#fff" style="stroke: var(--color1, #fff)" stroke-linejoin="round" stroke-linecap="round" stroke-miterlimit="4" stroke-width="3" d="M4 8h24"></path>
<path fill="none" stroke="#fff" style="stroke: var(--color1, #fff)" stroke-linejoin="round" stroke-linecap="round" stroke-miterlimit="4" stroke-width="3" d="M4 24h24"></path>
</symbol>

<symbol id="icon-menu-2" viewBox="0 0 32 32">
<path stroke="#262626" fill="white" stroke-linejoin="round" stroke-linecap="round" stroke-miterlimit="4" stroke-width="3" d="M4 16h24"></path>
<path stroke="#262626" fill="white" stroke-linejoin="round" stroke-linecap="round" stroke-miterlimit="4" stroke-width="3" d="M4 8h24"></path>
<path stroke="#262626" fill="white" stroke-linejoin="round" stroke-linecap="round" stroke-miterlimit="4" stroke-width="3" d="M4 24h24"></path>
</symbol>

<symbol id="icon-user" viewBox="0 0 32 32">
<path fill="#fff4df" style="fill: var(--color2, #fff4df)" d="M32 16c0 8.837-7.163 16-16 16s-16-7.163-16-16c0-8.837 7.163-16 16-16s16 7.163 16 16z"></path>
<path fill="#f6b83d" style="fill: var(--color3, #f6b83d); stroke: var(--color3, #f6b83d)" stroke="#f6b83d" stroke-linejoin="round" stroke-linecap="round" stroke-miterlimit="4" stroke-width="1.6" d="M16 18c-2.113 0-3.993 1.020-5.189 2.604-0.258 0.341-0.386 0.511-0.382 0.742 0.003 0.178 0.115 0.402 0.255 0.512 0.181 0.142 0.432 0.142 0.935 0.142h8.764c0.502 0 0.753 0 0.935-0.142 0.14-0.11 0.252-0.334 0.255-0.512 0.004-0.23-0.125-0.401-0.382-0.742-1.196-1.584-3.076-2.604-5.189-2.604z"></path>
<path fill="#f6b83d" style="fill: var(--color3, #f6b83d); stroke: var(--color3, #f6b83d)" stroke="#f6b83d" stroke-linejoin="round" stroke-linecap="round" stroke-miterlimit="4" stroke-width="1.6" d="M16 16c1.657 0 3-1.343 3-3s-1.343-3-3-3c-1.657 0-3 1.343-3 3s1.343 3 3 3z"></path>
</symbol>

<symbol id="icon-user2" viewBox="0 0 32 32">
<path fill="#fff" style="fill: var(--color1, #fff); stroke: var(--color1, #fff)" stroke="#fff" stroke-linejoin="round" stroke-linecap="round" stroke-miterlimit="4" stroke-width="3.5556" d="M16.001 20c-4.227 0-7.986 2.041-10.379 5.208-0.515 0.682-0.773 1.022-0.764 1.483 0.007 0.356 0.23 0.805 0.51 1.025 0.362 0.284 0.865 0.284 1.869 0.284h17.527c1.004 0 1.507 0 1.869-0.284 0.28-0.22 0.503-0.669 0.51-1.025 0.009-0.461-0.249-0.801-0.764-1.483-2.393-3.167-6.152-5.208-10.379-5.208z"></path>
<path fill="#fff" style="fill: var(--color1, #fff); stroke: var(--color1, #fff)" stroke="#fff" stroke-linejoin="round" stroke-linecap="round" stroke-miterlimit="4" stroke-width="3.5556" d="M16 16c3.314 0 6-2.686 6-6s-2.686-6-6-6c-3.314 0-6 2.686-6 6s2.686 6 6 6z"></path>
</symbol>

<symbol id="icon-edit" viewBox="0 0 32 32">
<path fill="none" stroke="#f6b83d" style="stroke: var(--color1, #f6b83d)" stroke-linejoin="round" stroke-linecap="round" stroke-miterlimit="4" stroke-width="2.6667" d="M22.667 4c0.35-0.35 0.766-0.628 1.223-0.817s0.948-0.287 1.443-0.287c0.495 0 0.986 0.098 1.443 0.287s0.873 0.467 1.223 0.817c0.35 0.35 0.628 0.766 0.817 1.224s0.287 0.948 0.287 1.443c0 0.495-0.098 0.986-0.287 1.443s-0.467 0.873-0.817 1.223l-18 18-7.333 2 2-7.333 18-18z"></path>
</symbol>

<symbol id="icon-x" viewBox="0 0 32 32">
<path stroke="#000000" fill="white" stroke-linejoin="round" stroke-linecap="round" stroke-miterlimit="4" stroke-width="3" d="M24 8l-16 16"></path>
<path stroke="#000000" fill="white" stroke-linejoin="round" stroke-linecap="round" stroke-miterlimit="4" stroke-width="3" d="M8 8l16 16"></path>
</symbol>

<symbol id="icon-x-1" viewBox="0 0 32 32">
<path stroke="#fff" stroke-linejoin="round" stroke-linecap="round" stroke-miterlimit="4" stroke-width="3" d="M24 8l-16 16"></path>
<path stroke="#fff" stroke-linejoin="round" stroke-linecap="round" stroke-miterlimit="4" stroke-width="3" d="M8 8l16 16"></path>
</symbol>

<symbol id="icon-fi-rr-angle-small-left-1" viewBox="0 0 32 32">
<path stroke="#000000" d="M14.134 16.947c-0.125-0.124-0.224-0.271-0.292-0.434s-0.103-0.337-0.103-0.513 0.035-0.35 0.103-0.513c0.068-0.162 0.167-0.31 0.292-0.434l6.12-6.107c0.125-0.124 0.224-0.271 0.292-0.434s0.103-0.337 0.103-0.513c0-0.176-0.035-0.35-0.103-0.513s-0.167-0.31-0.292-0.434c-0.25-0.248-0.588-0.388-0.94-0.388s-0.69 0.139-0.94 0.388l-6.12 6.12c-0.749 0.75-1.17 1.767-1.17 2.827s0.421 2.077 1.17 2.827l6.12 6.12c0.248 0.246 0.584 0.385 0.933 0.387 0.176 0.001 0.349-0.033 0.512-0.099s0.31-0.164 0.435-0.288c0.125-0.124 0.224-0.271 0.292-0.434s0.103-0.337 0.103-0.513-0.035-0.35-0.103-0.513c-0.068-0.162-0.167-0.31-0.292-0.434l-6.12-6.107z"></path>

</symbol>

<symbol id="icon-star" viewBox="0 0 32 32">
<path fill="#ffc531" style="fill: var(--color1, #ffc531); stroke: var(--color1, #ffc531)" stroke="#ffc531" stroke-linejoin="miter" stroke-linecap="butt" stroke-miterlimit="4" stroke-width="2.4" d="M12.4 9.394l3.6-6.822 3.6 6.822c0.318 0.603 0.899 1.025 1.571 1.141l7.601 1.315-5.376 5.532c-0.475 0.489-0.697 1.171-0.6 1.846l1.098 7.635-6.922-3.404c-0.612-0.301-1.329-0.301-1.941 0l-6.922 3.404 1.098-7.635c0.097-0.675-0.125-1.357-0.6-1.846l-5.376-5.532 7.601-1.315c0.672-0.116 1.252-0.538 1.571-1.141z"></path>
</symbol>

<symbol id="icon-heart" viewBox="0 0 32 32">
<path fill="none" stroke="#f6b83d" style="stroke: var(--color1, #f6b83d)" stroke-linejoin="round" stroke-linecap="round" stroke-miterlimit="4" stroke-width="2.6667" d="M27.788 6.147c-0.681-0.681-1.49-1.222-2.38-1.591s-1.844-0.559-2.807-0.559c-0.963 0-1.917 0.19-2.807 0.559s-1.699 0.909-2.38 1.591l-1.413 1.413-1.413-1.413c-1.376-1.376-3.241-2.148-5.187-2.148s-3.811 0.773-5.187 2.148c-1.376 1.376-2.148 3.241-2.148 5.187s0.773 3.811 2.148 5.187l11.787 11.787 11.787-11.787c0.681-0.681 1.222-1.49 1.591-2.38s0.558-1.844 0.558-2.807-0.19-1.917-0.558-2.807c-0.369-0.89-0.909-1.699-1.591-2.38z"></path>
</symbol>

<symbol id="icon-heart-3" viewBox="0 0 32 32">
<path fill="none" stroke="#fff" stroke-linejoin="round" stroke-linecap="round" stroke-miterlimit="4" stroke-width="2.6667" d="M27.787 6.147c-0.681-0.681-1.49-1.222-2.38-1.591s-1.844-0.559-2.807-0.559c-0.963 0-1.917 0.19-2.807 0.559s-1.698 0.909-2.38 1.591l-1.413 1.413-1.413-1.413c-1.376-1.376-3.241-2.148-5.187-2.148s-3.811 0.773-5.187 2.148c-1.376 1.376-2.148 3.241-2.148 5.187s0.773 3.811 2.148 5.187l11.787 11.787 11.787-11.787c0.681-0.681 1.222-1.49 1.591-2.38s0.559-1.844 0.559-2.807c0-0.963-0.19-1.917-0.559-2.807s-0.909-1.699-1.591-2.38z"></path>
</symbol>

<symbol id="icon-paw" viewBox="0 0 32 32">
<path fill="#fff4df" style="fill: var(--color1, #fff4df)" d="M16 0c8.837 0 16 7.163 16 16s-7.163 16-16 16c-8.837 0-16-7.163-16-16s7.163-16 16-16z"></path>
<path fill="#f6b83d" style="fill: var(--color2, #f6b83d)" d="M14.25 10.5c-0.535 0-1.001 0.304-1.297 0.719s-0.453 0.951-0.453 1.531c0 0.58 0.157 1.116 0.453 1.531s0.762 0.719 1.297 0.719c0.535 0 1.001-0.304 1.297-0.719s0.453-0.951 0.453-1.531c0-0.58-0.157-1.117-0.453-1.532s-0.762-0.719-1.297-0.719zM16 12.75c0 0.58 0.157 1.116 0.453 1.531s0.762 0.719 1.297 0.719c0.535 0 1.001-0.304 1.297-0.719s0.453-0.951 0.453-1.531c0-0.58-0.157-1.117-0.453-1.532s-0.762-0.719-1.297-0.719c-0.535 0-1.001 0.304-1.297 0.719s-0.453 0.951-0.453 1.531zM14.25 11.5c0.156 0 0.328 0.078 0.485 0.297 0.155 0.219 0.265 0.566 0.265 0.953s-0.11 0.735-0.265 0.953c-0.157 0.219-0.329 0.297-0.485 0.297s-0.328-0.078-0.485-0.297c-0.155-0.219-0.265-0.566-0.265-0.953s0.11-0.735 0.265-0.953c0.157-0.219 0.329-0.297 0.485-0.297zM17.75 11.5c0.156 0 0.328 0.078 0.485 0.297 0.155 0.219 0.265 0.566 0.265 0.953s-0.11 0.735-0.265 0.953c-0.157 0.219-0.329 0.297-0.485 0.297s-0.328-0.078-0.485-0.297c-0.155-0.219-0.265-0.566-0.265-0.953s0.11-0.735 0.265-0.953c0.157-0.219 0.329-0.297 0.485-0.297zM11.75 14c-0.535 0-1.001 0.304-1.297 0.719s-0.453 0.951-0.453 1.531c0 0.58 0.157 1.117 0.453 1.532s0.762 0.718 1.297 0.718c0.535 0 1.001-0.304 1.297-0.719s0.453-0.951 0.453-1.531c0-0.58-0.157-1.116-0.453-1.531s-0.762-0.719-1.297-0.719zM20.25 14c-0.535 0-1.001 0.304-1.297 0.719s-0.453 0.951-0.453 1.531c0 0.58 0.157 1.117 0.453 1.532s0.762 0.718 1.297 0.718c0.535 0 1.001-0.304 1.297-0.719s0.453-0.951 0.453-1.531c0-0.58-0.157-1.116-0.453-1.531s-0.762-0.719-1.297-0.719zM11.75 15c0.156 0 0.328 0.078 0.485 0.297 0.155 0.219 0.265 0.566 0.265 0.953s-0.11 0.735-0.265 0.953c-0.157 0.219-0.329 0.297-0.485 0.297s-0.328-0.078-0.485-0.297c-0.155-0.218-0.265-0.567-0.265-0.953s0.11-0.735 0.265-0.953c0.157-0.219 0.329-0.297 0.485-0.297zM20.25 15c0.156 0 0.328 0.078 0.485 0.297 0.155 0.219 0.265 0.566 0.265 0.953s-0.11 0.735-0.265 0.953c-0.157 0.219-0.329 0.297-0.485 0.297s-0.328-0.078-0.485-0.297c-0.155-0.218-0.265-0.567-0.265-0.953s0.11-0.735 0.265-0.953c0.157-0.219 0.329-0.297 0.485-0.297zM16 16c-0.666 0-1.131 0.433-1.36 0.813-0.227 0.38-0.367 0.696-0.5 0.828-0.077 0.078-0.559 0.26-1.062 0.516-0.252 0.129-0.505 0.3-0.719 0.563-0.215 0.263-0.36 0.625-0.36 1.032 0 0.96 0.79 1.75 1.75 1.75 0.433 0 0.885-0.14 1.327-0.265 0.445-0.128 0.923-0.236 0.923-0.236s0.479 0.108 0.922 0.235c0.443 0.125 0.895 0.265 1.328 0.265 0.96 0 1.75-0.79 1.75-1.75 0-0.397-0.146-0.76-0.36-1.015-0.213-0.257-0.469-0.415-0.718-0.548-0.5-0.265-0.991-0.475-1.063-0.547-0.12-0.119-0.255-0.445-0.485-0.827-0.23-0.383-0.705-0.814-1.374-0.814zM16 17c0.33 0 0.366 0.080 0.515 0.328 0.15 0.247 0.262 0.668 0.625 1.031 0.413 0.41 0.933 0.5 1.313 0.702 0.19 0.101 0.335 0.208 0.422 0.312s0.125 0.198 0.125 0.375c0 0.42-0.33 0.75-0.75 0.75-0.145 0-0.612-0.11-1.047-0.235-0.435-0.123-0.795-0.265-1.203-0.265s-0.768 0.142-1.203 0.265c-0.435 0.125-0.902 0.235-1.047 0.235-0.42 0-0.75-0.33-0.75-0.75 0-0.201 0.042-0.305 0.125-0.407s0.236-0.202 0.422-0.296c0.372-0.19 0.89-0.265 1.312-0.688 0.367-0.368 0.477-0.802 0.625-1.047 0.146-0.245 0.181-0.312 0.515-0.312l0.001 0.002z"></path>
</symbol>

<symbol id="icon-upload-cloud" viewBox="0 0 32 32">
<path fill="none" stroke="#f6b83d" style="stroke: var(--color1, #f6b83d)" stroke-linejoin="round" stroke-linecap="round" stroke-miterlimit="4" stroke-width="2" d="M16 16v12"></path>
<path fill="none" stroke="#f6b83d" style="stroke: var(--color1, #f6b83d)" stroke-linejoin="round" stroke-linecap="round" stroke-miterlimit="4" stroke-width="2" d="M27.189 24.52c1.3-0.709 2.328-1.831 2.92-3.189s0.715-2.874 0.35-4.309-1.198-2.708-2.367-3.618c-1.169-0.909-2.608-1.404-4.089-1.405h-1.68c-0.403-1.561-1.156-3.010-2.2-4.239s-2.353-2.204-3.829-2.854-3.079-0.956-4.691-0.897c-1.611 0.059-3.188 0.483-4.612 1.24s-2.658 1.826-3.609 3.128c-0.951 1.302-1.595 2.803-1.882 4.389s-0.212 3.218 0.222 4.77c0.433 1.553 1.213 2.988 2.281 4.196"></path>
<path fill="none" stroke="#f6b83d" style="stroke: var(--color1, #f6b83d)" stroke-linejoin="round" stroke-linecap="round" stroke-miterlimit="4" stroke-width="2" d="M21.335 21.333l-5.333-5.333-5.333 5.333"></path>
</symbol>

</defs>
</svg>
